<?xml version="1.0" encoding="iso-8859-1"?>
<!-- Uploaded to: SVG Repo, www.svgrepo.com, Generator: SVG Repo Mixer Tools -->
<svg fill="#49E640" version="1.1" id="Capa_1" xmlns="http://www.w3.org/2000/svg" xmlns:xlink="http://www.w3.org/1999/xlink" 
	 viewBox="0 0 485 485" xml:space="preserve">
<g>
	<path d="M442.123,140.509c-11.245-28.595-27.429-53.953-48.102-75.371c-20.026-20.748-43.423-36.963-69.54-48.196
		C298.341,5.701,270.758,0,242.5,0s-55.841,5.701-81.981,16.943c-26.117,11.232-49.514,27.448-69.54,48.196
		c-20.673,21.417-36.856,46.775-48.102,75.371C31.015,170.672,25,203.658,25,238.549V485h435V238.549
		C460,203.658,453.985,170.672,442.123,140.509z M242.5,365c52.805,0,96.623,39.184,103.924,90H138.576
		C145.877,404.184,189.695,365,242.5,365z M203.598,340.722C207.795,323.127,223.638,310,242.5,310s34.705,13.127,38.902,30.722
		C269.078,337.007,256.02,335,242.5,335S215.922,337.007,203.598,340.722z M430,455h-53.338
		c-4.729-42.583-29.337-79.255-64.315-100.489c0.098-1.504,0.153-3.009,0.153-4.511c0-38.598-31.401-70-70-70s-70,31.402-70,70
		c0,1.503,0.055,3.007,0.153,4.511c-34.979,21.234-59.586,57.906-64.315,100.489H55V238.549c0-25.734,3.494-49.211,9.766-70.37
		c7.167,33.152,18.64,73.846,33.989,89.195c12.749,12.75,29.7,19.771,47.73,19.771c18.029,0,34.98-7.021,47.729-19.771
		c26.317-26.318,26.317-69.141,0-95.459c-6.306-6.306-19.624-16.012-62.294-27.449c-19.334-5.182-38.347-8.965-48.146-10.79
		C119.198,62.282,182.104,30,242.5,30s123.302,32.282,158.725,93.677c-9.798,1.825-28.811,5.608-48.146,10.79
		c-42.67,11.437-55.988,21.143-62.294,27.449c-26.317,26.318-26.317,69.141,0,95.459c12.749,12.75,29.7,19.771,47.73,19.771
		c18.029,0,34.98-7.021,47.729-19.771c15.349-15.349,26.822-56.043,33.989-89.195c6.272,21.159,9.766,44.635,9.766,70.37V455z
		 M92.871,156.019c39.763,8.27,72.06,19.038,80.131,27.109c14.621,14.621,14.621,38.412,0,53.033
		c-7.083,7.083-16.5,10.983-26.517,10.983c-10.018,0-19.435-3.9-26.518-10.983C111.875,228.068,101.239,196.227,92.871,156.019z
		 M392.129,156.019c-8.368,40.208-19.004,72.049-27.097,80.142c-7.083,7.083-16.5,10.983-26.517,10.983
		c-10.018,0-19.435-3.9-26.518-10.983c-14.621-14.621-14.621-38.412,0-53.033C320.069,175.057,352.366,164.289,392.129,156.019z"/>
	<rect x="212.5" y="395" width="60" height="30"/>
</g>
</svg>