<?xml version="1.0" standalone="no"?>
<!DOCTYPE svg PUBLIC "-//W3C//DTD SVG 20010904//EN"
 "http://www.w3.org/TR/2001/REC-SVG-20010904/DTD/svg10.dtd">
<svg version="1.0" xmlns="http://www.w3.org/2000/svg"
 width="700.000000pt" height="700.000000pt" viewBox="0 0 700.000000 700.000000"
 preserveAspectRatio="xMidYMid meet">
<metadata>
Created by potrace 1.14, written by Peter Selinger 2001-2017
</metadata>
<g transform="translate(0.000000,700.000000) scale(0.100000,-0.100000)"
fill="#000000" stroke="none">
<path d="M3299 6996 c-2 -2 -38 -6 -79 -10 -566 -48 -1150 -287 -1615 -661
-92 -74 -110 -90 -205 -180 -325 -309 -590 -702 -765 -1136 -76 -188 -161
-464 -191 -624 -2 -11 -6 -31 -9 -45 -4 -23 -11 -60 -21 -114 -4 -24 -21 -152
-30 -226 -3 -30 -9 -73 -11 -95 -3 -22 -7 -910 -10 -1972 l-4 -1933 3141 0
3141 0 -4 1938 c-2 1065 -7 1957 -11 1982 -4 25 -11 83 -17 130 -12 106 -22
175 -45 296 -12 66 -68 284 -90 355 -14 45 -27 89 -29 98 -16 70 -143 367
-224 521 -47 90 -206 350 -231 378 -8 9 -35 44 -59 76 -326 437 -805 804
-1321 1011 -102 41 -332 117 -393 129 -143 30 -284 56 -337 62 -36 4 -76 9
-90 11 -29 5 -486 13 -491 9z m441 -440 c690 -80 1281 -386 1730 -896 129
-146 330 -433 312 -444 -4 -2 -34 -9 -67 -16 -664 -130 -1153 -284 -1390 -437
-312 -202 -473 -612 -390 -998 45 -211 155 -388 338 -548 86 -74 243 -152 379
-188 87 -23 292 -32 388 -17 245 38 491 188 614 373 129 194 254 527 355 950
18 72 37 151 43 178 14 58 18 52 51 -83 38 -151 69 -333 82 -471 4 -36 9 -86
12 -110 3 -24 6 -803 7 -1730 l3 -1685 -383 0 c-210 1 -384 3 -387 6 -2 3 -7
28 -11 55 -30 254 -149 566 -302 796 -152 225 -351 423 -560 557 l-51 32 -6
108 c-4 59 -9 122 -12 141 -10 68 -48 178 -91 265 -168 338 -494 549 -864 561
-137 4 -216 -6 -330 -41 -414 -127 -696 -489 -717 -921 l-6 -112 -71 -47
c-283 -188 -512 -452 -666 -769 -93 -192 -156 -389 -175 -552 -4 -32 -11 -63
-16 -69 -6 -7 -126 -10 -386 -10 l-378 1 0 1635 c1 1444 4 1793 19 1890 2 14
7 48 10 75 4 28 9 65 11 83 3 17 7 44 9 60 4 25 43 218 51 252 13 52 34 123
38 127 3 2 12 -31 22 -74 116 -526 277 -961 423 -1142 119 -147 298 -258 507
-313 84 -23 289 -31 385 -16 125 20 290 85 396 159 65 44 169 144 219 209 59
77 135 214 135 243 0 7 4 17 9 23 19 20 54 203 56 299 6 227 -58 430 -193 612
-106 143 -242 240 -459 328 -65 26 -127 51 -138 56 -26 11 -264 84 -335 103
-30 8 -89 24 -130 35 -87 23 -312 75 -450 103 -132 26 -133 26 -153 27 -17 1
-16 5 8 49 32 55 118 184 152 227 12 17 33 43 45 59 140 180 363 395 538 518
14 10 43 30 65 46 110 78 322 193 475 257 173 73 449 151 605 171 22 3 46 7
52 9 7 2 57 7 110 11 54 3 99 8 101 9 6 5 305 -3 362 -9z m-2200 -1852 c54
-11 232 -57 363 -95 295 -85 507 -175 589 -251 141 -130 197 -360 135 -553
-55 -173 -213 -316 -395 -358 -74 -17 -188 -14 -266 7 -136 38 -255 138 -318
266 -45 94 -97 228 -132 345 -15 50 -31 101 -36 115 -14 38 -65 239 -99 390
-17 74 -33 145 -36 156 l-5 22 88 -20 c48 -10 98 -21 112 -24z m4094 -74 c-13
-63 -29 -128 -34 -145 -5 -16 -11 -41 -14 -55 -9 -51 -76 -290 -111 -394 -84
-257 -154 -396 -232 -465 -222 -198 -563 -177 -763 47 -28 31 -50 60 -50 65 0
5 -9 21 -19 36 -48 67 -77 244 -58 353 20 110 102 252 180 310 69 50 237 124
412 181 152 49 515 146 610 163 17 3 46 9 65 13 19 4 36 7 37 7 1 -1 -9 -53
-23 -116z m-2034 -2113 c147 -29 278 -110 362 -225 42 -56 104 -189 94 -199
-3 -3 -27 0 -53 7 -70 17 -96 23 -218 45 -126 23 -500 23 -567 0 -7 -2 -29 -6
-48 -9 -54 -9 -79 -14 -157 -34 -47 -12 -73 -15 -73 -8 1 29 62 151 103 203
57 75 117 124 204 167 103 53 247 74 353 53z m126 -802 c422 -67 785 -297
1025 -647 58 -84 139 -236 154 -288 4 -14 11 -29 15 -35 14 -19 80 -274 80
-309 0 -1 -675 -2 -1499 -2 l-1499 0 4 35 c20 164 123 420 237 591 202 302
537 540 882 625 168 42 441 56 601 30z"/>
<path d="M3069 1288 c-4 -59 -3 -418 1 -419 14 -3 837 -4 850 -1 13 3 15 33
13 205 -1 111 -2 208 -2 215 -1 9 -94 12 -431 12 -337 0 -430 -3 -431 -12z"/>
</g>
</svg>
